<svg width="512" height="512" viewBox="0 0 512 512" fill="none" xmlns="http://www.w3.org/2000/svg">
<path d="M488.233 30.842L510.333 0H257.594L279.695 30.842C291.54 47.371 297.917 67.166 298.19 87.293H469.73C470.003 67.191 476.381 47.382 488.233 30.842V30.842Z" fill="#42A5F5"/>
<path d="M447.66 410.285L383.957 380.258L320.26 410.285L261.084 371.545C266.782 394.841 277.09 417 291.738 436.86L312.676 465.248H455.251L476.189 436.86C490.075 418.034 500.067 396.88 505.916 374.667L447.66 410.285Z" fill="#42A5F5"/>
<path d="M329.18 297.654C306.668 324.544 280.372 333.774 262.17 336.779L320.261 375.884L383.958 345.858L447.661 375.884L511.809 336.027C512.468 321.342 511.381 306.517 508.45 291.878L494.133 220.366H352.785C353.362 242.238 349.686 273.163 329.18 297.654V297.654Z" fill="#42A5F5"/>
<path d="M341.675 145.677L349.299 190.34H488.121L473.502 117.32H294.488L284.177 170.563C289.917 168.983 341.675 145.677 341.675 145.677V145.677Z" fill="#42A5F5"/>
<path d="M255.521 308.512C269.288 306.68 289.341 300.065 306.945 279.038C331.365 249.871 319.415 187.617 319.415 187.617L305.988 193.707C305.772 193.805 284.01 203.51 257.677 203.112C244.081 202.871 231.136 208.007 221.438 217.705C203.344 235.799 205.94 256.978 205.895 258.884L255.521 308.512Z" fill="#42A5F5"/>
<path d="M155.011 311.221L185.366 280.865L231.087 326.586L200.732 356.942L155.011 311.221Z" fill="#42A5F5"/>
<path d="M133.828 332.465L9.47588 456.817C3.36888 462.924 0.00488281 471.044 0.00488281 479.681C0.00588281 488.318 3.36888 496.438 9.47688 502.545C15.7799 508.849 24.0609 512 32.3409 512C40.6209 512 48.9009 508.849 55.2049 502.545L179.556 378.194L133.828 332.465Z" fill="#42A5F5"/>
</svg>
