<svg width="512" height="512" viewBox="0 0 512 512" fill="none" xmlns="http://www.w3.org/2000/svg">
<path d="M273 100C278.52 100 283 95.5195 283 90C283 84.4805 278.52 80 273 80C267.48 80 263 84.4805 263 90C263 95.5195 267.48 100 273 100Z" fill="#42A5F5"/>
<path d="M256.461 207.641C261.008 210.754 267.234 209.605 270.359 205.039C282.086 187.914 289.875 168.855 293.504 148.395C294.731 141.52 295.246 134.605 295.047 127.84C294.883 122.32 290.234 117.945 284.75 118.145C279.231 118.309 274.891 122.918 275.055 128.437C275.215 133.832 274.801 139.367 273.817 144.891C270.68 162.543 263.969 178.977 253.859 193.742C250.738 198.297 251.902 204.52 256.461 207.641Z" fill="#42A5F5"/>
<path d="M77.0001 40C73.5352 40 70.3165 41.7969 68.4922 44.7422C66.6719 47.6914 66.5079 51.3711 68.0547 54.4727C95.0626 108.473 107 134.68 107 190V270C107 316.266 131.297 356.953 167.797 380H137C131.477 380 127 384.477 127 390V430C127 435.523 131.477 440 137 440H147V502C147 507.523 151.477 512 157 512H357C362.523 512 367 507.523 367 502V440H377C382.523 440 387 435.523 387 430V390C387 384.477 382.523 380 377 380H370.594C376.004 376.414 380.914 372.387 385.238 367.945C400.086 352.688 407.617 332.941 407.016 310.836C406.793 302.656 409.801 294.934 415.496 289.082C421.191 283.227 428.832 280 437 280C440.465 280 443.684 278.207 445.508 275.258C447.328 272.313 447.496 268.629 445.945 265.527L435.273 244.18C435.273 244.18 435.273 244.18 435.273 244.176C427.813 229.266 412.82 220 396.152 220C380.836 220 366.441 228.168 358.594 241.312C358.566 241.355 358.551 241.402 358.523 241.445C358.496 241.492 358.465 241.539 358.434 241.586L342.746 269.855C334.984 252.293 317.406 240 297 240C296.285 240 295.57 240.031 294.859 240.062L303.363 227.637C336.391 179.371 346.297 120.523 319.379 69.4922C296.77 26.6289 252.285 0 203.281 0H177C173.313 0 169.922 2.03125 168.184 5.28125C166.441 8.53516 166.633 12.4805 168.68 15.5508L175.59 25.9062C194.078 53.6406 196.012 80.4023 192.453 103.59C168.441 65.5977 125.816 40 77.0001 40V40ZM127 270V190C127 134.254 114.656 103.645 93.754 61.2227C134.356 67.1758 169.586 94.4297 185.145 133.008C174.84 164.637 158.996 193.605 154.984 220.035V220.039C151.313 244.223 152.254 268.965 157.711 291.598C163.426 315.309 174.156 336.809 188.746 353.781C196.957 363.336 206.316 371.461 216.684 378.113C165.703 368.551 127 323.715 127 270ZM167 440H347V492H167V440ZM367 400V420C357.316 420 162.551 420 147 420V400H367ZM297 260C318.004 260 332.352 281.051 325.137 300.41C320.816 312.129 309.508 320 297 320C280.457 320 267 306.543 267 290C267 273.441 280.508 260 297 260V260ZM203.281 20C244.844 20 282.551 42.5391 301.688 78.8203C323.617 120.398 318.211 170.523 286.856 216.344C285.516 218.305 257.852 258.727 256.527 260.664C250.297 269.238 247 279.371 247 290C247 317.57 269.43 340 297 340C316.484 340 334.227 328.523 342.336 311.094C344.106 309.27 342.375 311.484 375.813 251.492C380.082 244.402 387.863 240 396.152 240C405.199 240 413.336 245.031 417.387 253.125L421.965 262.281C414.16 264.73 407.043 269.094 401.16 275.137C391.672 284.891 386.648 297.762 387.023 311.383C387.481 328.199 382.055 342.539 370.902 353.996C354.82 370.523 327.887 380 297 380C258.18 380 225.988 366.426 203.914 340.742C178.887 311.633 167.988 267.629 174.758 223.039C178.277 199.84 193.762 171.094 204.133 139.289C205.379 137.563 206.051 135.461 206.023 133.297C214.609 104.816 221.82 63.3789 195.531 20H203.281Z" fill="#42A5F5"/>
</svg>
