<svg width="512" height="512" viewBox="0 0 512 512" fill="none" xmlns="http://www.w3.org/2000/svg">
<g clip-path="url(#clip0)">
<path d="M138.363 480.59H130.591C126.161 480.59 122.57 484.181 122.57 488.611C122.57 493.04 126.161 496.632 130.591 496.632H138.363C142.793 496.632 146.384 493.04 146.384 488.611C146.384 484.181 142.793 480.59 138.363 480.59Z" fill="#42A5F5"/>
<path d="M503.979 410.863H458.203C453.773 410.863 450.182 414.454 450.182 418.884V448.505H417.095V422.437H427.243C431.672 422.437 435.264 418.845 435.264 414.416V356.086H458.203C463.706 356.086 467.565 350.663 465.794 345.476L458.421 323.86C453.557 306.81 435.426 294.925 414.227 294.925H381.501V266.026C381.501 261.597 377.91 258.005 373.48 258.005C369.051 258.005 365.459 261.597 365.459 266.026V294.925H334.46C312.818 294.925 294.601 307.119 290.061 324.61L283.497 345.678C281.889 350.838 285.752 356.086 291.155 356.086H311.697V414.416C311.697 418.845 315.289 422.437 319.718 422.437H329.866V448.505H250.157V381.24C250.157 376.81 246.565 373.219 242.136 373.219C237.706 373.219 234.115 376.81 234.115 381.24V448.505H204.537V381.24C204.537 376.81 200.945 373.219 196.516 373.219H154.57C150.14 373.219 146.549 376.81 146.549 381.24V448.505H116.807V356.086H269.623C275.115 356.086 278.987 350.676 277.215 345.476L269.842 323.86C265.184 307.539 248.371 295.96 228.35 294.997V270.684H255.671C261.175 270.684 265.034 265.261 263.262 260.074L255.891 238.457C251.233 222.137 234.42 210.558 214.399 209.595V188.823H240.632C246.425 188.823 250.312 182.853 247.966 177.554L240.746 161.246C235.942 145.119 219.23 133.703 199.36 132.748V122.649C199.36 118.219 195.769 114.628 191.339 114.628C186.91 114.628 183.318 118.219 183.318 122.649V131.673H167.604V103.599H230.605C236.399 103.599 240.286 97.6293 237.94 92.3304L230.72 76.0226C225.7 59.1683 207.677 47.4516 186.631 47.4516H183.482V23.3884C183.482 18.9588 179.89 15.3673 175.461 15.3673C171.031 15.3673 167.44 18.9588 167.44 23.3884V47.4516H163.62C142.126 47.4516 124.009 59.4821 119.315 76.7836L112.887 92.5499C110.74 97.8198 114.622 103.6 120.315 103.6H151.561V132.713C130.965 133.445 113.833 145.255 109.289 162.008L102.861 177.775C100.714 183.044 104.595 188.825 110.289 188.825H198.356V209.525H138.554C116.913 209.525 98.6961 221.72 94.1542 239.21L87.5909 260.278C85.9827 265.439 89.8458 270.686 95.249 270.686H122.57V294.963C101.828 295.7 84.6011 307.673 80.2035 324.612L73.6403 345.68C72.0321 350.841 75.8952 356.088 81.2984 356.088H100.765V448.507H61.8183V418.886C61.8183 414.456 58.2268 410.865 53.7972 410.865H8.02106C3.59143 410.865 0 414.456 0 418.886V488.613C0 493.042 3.59143 496.634 8.02106 496.634H108.786C113.215 496.634 116.807 493.042 116.807 488.613C116.807 484.183 113.215 480.592 108.786 480.592H61.8183V464.549H450.182V480.592H161.424C156.994 480.592 153.403 484.183 153.403 488.613C153.403 493.042 156.994 496.634 161.424 496.634H503.98C508.41 496.634 512.001 493.042 512.001 488.613V418.886C512 414.454 508.409 410.863 503.979 410.863V410.863ZM212.308 270.685V293.924H138.612V270.685H212.308ZM327.739 356.086H419.221V406.395C406.138 406.395 340.539 406.395 327.739 406.395V356.086Z" fill="#42A5F5"/>
</g>
<defs>
<clipPath id="clip0">
<rect width="512" height="512" fill="white"/>
</clipPath>
</defs>
</svg>
