<svg width="512" height="512" viewBox="0 0 512 512" fill="none" xmlns="http://www.w3.org/2000/svg">
<path d="M256 0C214.647 0 181 33.647 181 75C181 111.05 210.209 180 256 180C301.791 180 331 111.05 331 75C331 33.647 297.353 0 256 0Z" fill="#42A5F5"/>
<path d="M373.042 197.3C364.458 186.314 351.523 180 337.578 180H318.993C302.149 197.917 280.847 210 256.001 210C231.155 210 209.853 197.917 193.009 180H174.424C160.479 180 147.544 186.313 138.96 197.3C130.375 208.301 127.388 222.378 130.977 236.66L136.577 255H375.407L381.23 235.913C384.614 222.378 381.625 208.301 373.042 197.3Z" fill="#42A5F5"/>
<path d="M406 482H391V375H121V482H106C97.709 482 91 488.709 91 497C91 505.291 97.709 512 106 512H136H376H406C414.291 512 421 505.291 421 497C421 488.709 414.291 482 406 482ZM286 452H226C217.709 452 211 445.291 211 437C211 428.709 217.709 422 226 422H286C294.291 422 301 428.709 301 437C301 445.291 294.291 452 286 452Z" fill="#42A5F5"/>
<path d="M376 285H136C111.186 285 91 305.186 91 330V345H421V330C421 305.186 400.814 285 376 285Z" fill="#42A5F5"/>
</svg>
